#!OML:ASF F:\VICON\USERDATA\INSTALL\rory3\rory3.ASF
:FULLY-SPECIFIED
:DEGREES
106
root 0.898446 17.8689 -15.8367 6.80459 -2.95343 0.502098
lowerback 5.91189 -0.176495 -1.72486
upperback 0.000859194 -0.278321 2.24233
thorax -3.29679 -0.0932535 3.31298
lowerneck -15.5443 -3.40122 -9.8721
upperneck 28.5213 -3.21406 3.81789
head 12.2334 -2.02136 2.64689
rclavicle -4.96962e-015 -3.26007e-014
rhumerus -33.1651 -10.986 -78.0302
rradius 33.5176
rwrist 3.08849
rhand -11.7234 15.1897
rfingers 7.12502
rthumb 14.3235 -14.2962
lclavicle -4.96962e-015 -3.26007e-014
lhumerus -32.062 9.51539 85.49
lradius 32.4992
lwrist -5.19462
lhand -12.1271 29.9468
lfingers 7.12502
lthumb 13.9346 59.4598
rfemur -12.4754 5.6895 21.4676
rtibia 20.4224
rfoot -9.04012 -10.4075
rtoes 3.52391
lfemur -13.4972 -3.35412 -21.5163
ltibia 20.2954
lfoot -10.2443 5.40763
ltoes 0.881175
107
root 0.90065 17.8682 -15.827 6.73778 -3.00207 0.394851
lowerback 5.95277 -0.176182 -1.63671
upperback 0.0300978 -0.270493 2.29937
thorax -3.29019 -0.0907923 3.32194
lowerneck -15.6418 -3.43618 -9.98902
upperneck 28.616 -3.24149 3.88417
head 12.2979 -2.039 2.68873
rclavicle 3.08116e-015 -3.33958e-014
rhumerus -33.1214 -10.9667 -78.0008
rradius 33.4799
rwrist 3.12557
rhand -11.6928 15.2124
rfingers 7.12502
rthumb 14.3531 -14.2715
lclavicle 3.08116e-015 -3.33958e-014
lhumerus -32.2131 9.40895 85.5335
lradius 32.6918
lwrist -5.02785
lhand -12.3819 29.0215
lfingers 7.12502
lthumb 13.689 58.5513
rfemur -12.3167 5.778 21.5792
rtibia 20.3356
rfoot -9.08828 -10.4408
rtoes 4.24484
lfemur -13.4152 -3.40756 -21.4124
ltibia 20.381
lfoot -10.2406 5.51699
ltoes 1.04106
108
root 0.902386 17.8671 -15.8214 6.71 -3.1208 0.399668
lowerback 5.92982 -0.169796 -1.67357
upperback 0.112235 -0.264961 2.30853
thorax -3.19252 -0.089771 3.35088
lowerneck -15.7889 -3.44683 -9.96172
upperneck 28.5675 -3.2321 3.83457
head 12.3068 -2.03586 2.6646
rclavicle 7.65321e-015 -4.77083e-015
rhumerus -32.901 -10.9347 -78.0919
rradius 33.4184
rwrist 3.06527
rhand -11.7255 15.0879
rfingers 7.12502
rthumb 14.3216 -14.3982
lclavicle 7.65321e-015 -4.77083e-015
lhumerus -32.1054 9.43803 85.54
lradius 32.7254
lwrist -4.77822
lhand -12.6365 28.6633
lfingers 7.12502
lthumb 13.4436 58.2095
rfemur -12.2478 5.8541 21.5673
rtibia 20.2751
rfoot -8.9393 -10.3921
rtoes 4.08363
lfemur -13.3743 -3.42551 -21.4415
ltibia 20.3956
lfoot -10.2707 5.68232
ltoes 0.572817
109
root 0.905121 17.8677 -15.8133 6.7311 -3.25077 0.393258
lowerback 5.87633 -0.174373 -1.68715
upperback 0.0938749 -0.270972 2.32454
thorax -3.18094 -0.0924028 3.37534
lowerneck -15.7055 -3.41363 -9.93532
upperneck 28.5277 -3.18641 3.78508
head 12.2685 -2.01921 2.6481
rclavicle -1.0138e-014 -2.46493e-014
rhumerus -32.8352 -10.8326 -78.1567
rradius 33.3251
rwrist 3.12969
rhand -11.899 14.6084
rfingers 7.12502
rthumb 14.1543 -14.8894
lclavicle -1.0138e-014 -2.46493e-014
lhumerus -32.2675 9.56364 85.481
lradius 32.94
lwrist -4.84188
lhand -12.3926 29.307
lfingers 7.12502
lthumb 13.6786 58.8375
rfemur -12.2684 5.83361 21.5587
rtibia 20.2628
rfoot -8.80415 -10.2372
rtoes 3.9648
lfemur -13.3504 -3.49407 -21.4472
ltibia 20.3661
lfoot -10.3733 5.91261
ltoes 0.417876
110
root 0.906219 17.8682 -15.8054 6.75624 -3.34972 0.374344
lowerback 5.81152 -0.16261 -1.70076
upperback 0.0501311 -0.254659 2.34611
thorax -3.19084 -0.0832487 3.40382
lowerneck -15.4743 -3.39512 -9.97233
upperneck 28.4735 -3.18187 3.80686
head 12.1999 -2.01958 2.66418
rclavicle -1.33186e-014 -2.94201e-014
rhumerus -32.9164 -10.8095 -78.1459
rradius 33.3052
rwrist 3.29248
rhand -12.0689 14.4274
rfingers 7.12502
rthumb 13.9906 -15.0819
lclavicle -1.33186e-014 -2.94201e-014
lhumerus -32.4175 9.62878 85.4221
lradius 33.0428
lwrist -5.2375
lhand -11.9339 30.1441
lfingers 7.12502
lthumb 14.1207 59.6443
rfemur -12.3052 5.88542 21.5652
rtibia 20.2911
rfoot -8.74871 -10.1965
rtoes 3.96229
lfemur -13.317 -3.53632 -21.4257
ltibia 20.318
lfoot -10.4423 6.02773
ltoes 0.487724
111
root 0.906608 17.8663 -15.8039 6.72443 -3.38951 0.386889
lowerback 5.88197 -0.148334 -1.7393
upperback 0.0385816 -0.238419 2.351
thorax -3.24338 -0.0736026 3.43018
lowerneck -15.6268 -3.50293 -10.15
upperneck 28.7375 -3.34732 4.04647
head 12.3593 -2.08639 2.76408
rclavicle -1.2921e-015 -5.56597e-015
rhumerus -33.0418 -10.7307 -78.1702
rradius 33.496
rwrist 3.21148
rhand -12.0662 14.4518
rfingers 7.12502
rthumb 13.9932 -15.0572
lclavicle -1.2921e-015 -5.56597e-015
lhumerus -32.3758 9.71481 85.3232
lradius 33.0323
lwrist -5.98567
lhand -10.9826 31.2367
lfingers 7.12502
lthumb 15.0373 60.6706
rfemur -12.2867 6.00003 21.5499
rtibia 20.3273
rfoot -8.80952 -10.3117
rtoes 3.83272
lfemur -13.2496 -3.50618 -21.4405
ltibia 20.2646
lfoot -10.3699 6.01649
ltoes 0.666799
